<?xml version="1.0" encoding="UTF-8"?>
<svg width="213px" height="196px" viewBox="0 0 213 196" version="1.1" xmlns="http://www.w3.org/2000/svg" xmlns:xlink="http://www.w3.org/1999/xlink">
    <!-- Generator: Sketch 42 (36781) - http://www.bohemiancoding.com/sketch -->
    <title>Group</title>
    <desc>Created with Sketch.</desc>
    <defs>
        <linearGradient x1="49.9999771%" y1="100%" x2="49.9999771%" y2="0%" id="linearGradient-1">
            <stop stop-color="#FFDD66" offset="0%"></stop>
            <stop stop-color="#EECC33" offset="50%"></stop>
            <stop stop-color="#EE9933" offset="100%"></stop>
        </linearGradient>
        <linearGradient x1="50%" y1="100%" x2="50%" y2="0%" id="linearGradient-2">
            <stop stop-color="#EECC33" offset="0%"></stop>
            <stop stop-color="#EE9933" offset="50%"></stop>
            <stop stop-color="#EE7722" offset="100%"></stop>
        </linearGradient>
        <linearGradient x1="50.0022182%" y1="0%" x2="50.0022182%" y2="100%" id="linearGradient-3">
            <stop stop-color="#66CC77" offset="0%"></stop>
            <stop stop-color="#339966" offset="50%"></stop>
            <stop stop-color="#228855" offset="100%"></stop>
        </linearGradient>
        <linearGradient x1="99.999969%" y1="50%" x2="0%" y2="50%" id="linearGradient-4">
            <stop stop-color="#EECC33" offset="0%"></stop>
            <stop stop-color="#EE9933" offset="50%"></stop>
            <stop stop-color="#EE7722" offset="100%"></stop>
        </linearGradient>
        <linearGradient x1="50.0020484%" y1="0%" x2="50.0020484%" y2="99.9531974%" id="linearGradient-5">
            <stop stop-color="#FF8877" offset="0%"></stop>
            <stop stop-color="#FF6655" offset="50%"></stop>
            <stop stop-color="#EE5544" offset="100%"></stop>
        </linearGradient>
        <linearGradient x1="75.0040625%" y1="6.6915625%" x2="24.9959375%" y2="93.3084375%" id="linearGradient-6">
            <stop stop-color="#EECC33" offset="0%"></stop>
            <stop stop-color="#EE9933" offset="100%"></stop>
        </linearGradient>
        <linearGradient x1="100%" y1="49.9795913%" x2="-0.0171088747%" y2="49.9795913%" id="linearGradient-7">
            <stop stop-color="#336655" offset="0%"></stop>
            <stop stop-color="#225544" offset="50%"></stop>
            <stop stop-color="#114433" offset="100%"></stop>
        </linearGradient>
        <linearGradient x1="72.2075676%" y1="103.569423%" x2="21.3994869%" y2="14.5769231%" id="linearGradient-8">
            <stop stop-color="#66CC77" offset="0%"></stop>
            <stop stop-color="#339966" offset="50%"></stop>
            <stop stop-color="#336655" offset="100%"></stop>
        </linearGradient>
        <linearGradient x1="32.5284334%" y1="-1.28736111%" x2="74.7369884%" y2="88.2681944%" id="linearGradient-9">
            <stop stop-color="#33AAFF" offset="0%"></stop>
            <stop stop-color="#3399CC" offset="50%"></stop>
            <stop stop-color="#2266CC" offset="100%"></stop>
        </linearGradient>
    </defs>
    <g id="Page-1" stroke="none" stroke-width="1" fill="none" fill-rule="evenodd">
        <g id="Group" fill-rule="nonzero">
            <path d="M89,124 C89,156 109,168 125,168 C141,168 157,156 161,160 C165,164 149,196 109,196 C69,196 33,164 33,116 L89,124 Z" id="Shape" fill="url(#linearGradient-1)"></path>
            <path d="M109,196 C109,196 58,192.3 53.3,118.9 L33,116 C33,164 69,196 109,196 Z" id="Shape" fill="url(#linearGradient-2)"></path>
            <path d="M141,0 C74.4,0 38.6,58.2 33.6,105 C37.9,106.6 45.9,108 61,108 C72.8,108 82.8,105.9 91,103 C101.8,49.1 153,38.6 153,60 C153,92 93,112 53,112 C13,112 9,100 1,108 C-4.7,113.7 21,132 93,132 C165,132 213,92 213,60 C213,28 181,0 141,0 Z" id="Shape" fill="url(#linearGradient-3)"></path>
            <path d="M161,160 C157,156 141,168 125,168 C109,168 89,156 89,124 C89,164 97,188 121,188 C145,188 165,164 161,160 Z" id="Shape" fill="url(#linearGradient-4)"></path>
            <path d="M141,0 C74.4,0 38.6,58.2 33.6,105 C37.1,106.3 43,107.5 53,107.9 C53.1,24 141,0 141,0 Z" id="Shape" fill="url(#linearGradient-5)"></path>
            <circle id="Oval" fill="url(#linearGradient-6)" cx="181" cy="140" r="16"></circle>
            <path d="M153,28 C195.9,28 208.3,84.3 175.8,110.7 C199.4,96.4 213,77 213,60 C213,12.9 136.5,-4.6 103.7,56 C114.4,40.2 130.1,28 153,28 Z" id="Shape" fill="url(#linearGradient-7)"></path>
            <path d="M153,28 C130.1,28 114.4,40.2 103.7,56 C97,68.4 92.1,84 90.1,103.3 C90.4,103.2 90.7,103.1 91,103 C101.8,49.1 153,38.6 153,60 C153,83 122,99.8 89.7,107.4 C89.3,112.7 89,118.2 89,124 L89,132 L93,132 C126.6,132 155,123.3 175.7,110.7 C208.3,84.4 195.9,28 153,28 Z" id="Shape" fill="url(#linearGradient-8)"></path>
            <path d="M93,132 C21,132 -4.7,113.7 1,108 C9,100 13,112 53,112 C93,112 153,92 153,60 C153,108 93,132 93,132 Z" id="Shape" fill="url(#linearGradient-9)"></path>
        </g>
    </g>
</svg>