<?xml version="1.0" standalone="no"?>
<!DOCTYPE svg PUBLIC "-//W3C//DTD SVG 20010904//EN"
 "http://www.w3.org/TR/2001/REC-SVG-20010904/DTD/svg10.dtd">
<svg version="1.0" xmlns="http://www.w3.org/2000/svg"
 width="117.000000pt" height="105.000000pt" viewBox="0 0 117.000000 105.000000"
 preserveAspectRatio="xMidYMid meet">
<metadata>
Created by potrace 1.15, written by Peter Selinger 2001-2017
</metadata>
<g transform="translate(0.000000,105.000000) scale(0.100000,-0.100000)"
fill="#000000" stroke="none">
<path d="M129 775 c-41 -93 10 -196 113 -226 72 -20 164 37 188 117 13 44 2
105 -25 139 -16 19 -16 19 -5 -3 16 -34 14 -104 -4 -141 -49 -93 -193 -94
-241 0 -19 36 -22 108 -5 138 6 12 8 21 5 21 -3 0 -15 -20 -26 -45z"/>
</g>
</svg>
