<svg width="695" height="181" viewBox="0 0 695 181" fill="none" xmlns="http://www.w3.org/2000/svg">
<path d="M166.674 47H190.434V131H166.674V47ZM239.738 100.52L230.858 110V131H207.338V47H230.858V81.92L263.378 47H289.538L255.218 84.2L291.338 131H263.738L239.738 100.52ZM297.573 47H321.333V131H297.573V47ZM338.237 47H361.997V112.16H402.077V131H338.237V47ZM478.919 112.64V131H411.479V47H477.359V65.36H434.999V79.52H472.319V97.28H434.999V112.64H478.919ZM548.267 87.2H569.267V122C564.467 125.44 558.947 128.08 552.707 129.92C546.467 131.76 540.227 132.68 533.987 132.68C525.187 132.68 517.267 130.84 510.227 127.16C503.187 123.4 497.667 118.2 493.667 111.56C489.667 104.92 487.667 97.4 487.667 89C487.667 80.6 489.667 73.08 493.667 66.44C497.667 59.8 503.227 54.64 510.347 50.96C517.467 47.2 525.507 45.32 534.467 45.32C542.307 45.32 549.347 46.64 555.587 49.28C561.827 51.92 567.027 55.72 571.187 60.68L556.067 74.36C550.387 68.12 543.587 65 535.667 65C528.467 65 522.667 67.2 518.267 71.6C513.867 75.92 511.667 81.72 511.667 89C511.667 93.64 512.667 97.8 514.667 101.48C516.667 105.08 519.467 107.92 523.067 110C526.667 112 530.787 113 535.427 113C539.987 113 544.267 112.08 548.267 110.24V87.2ZM584.331 47H608.091V131H584.331V47ZM654.515 132.68C647.715 132.68 641.115 131.84 634.715 130.16C628.315 128.48 623.115 126.24 619.115 123.44L626.915 105.92C630.675 108.4 635.035 110.4 639.995 111.92C644.955 113.44 649.835 114.2 654.635 114.2C663.755 114.2 668.315 111.92 668.315 107.36C668.315 104.96 666.995 103.2 664.355 102.08C661.795 100.88 657.635 99.64 651.875 98.36C645.555 97 640.275 95.56 636.035 94.04C631.795 92.44 628.155 89.92 625.115 86.48C622.075 83.04 620.555 78.4 620.555 72.56C620.555 67.44 621.955 62.84 624.755 58.76C627.555 54.6 631.715 51.32 637.235 48.92C642.835 46.52 649.675 45.32 657.755 45.32C663.275 45.32 668.715 45.96 674.075 47.24C679.435 48.44 684.155 50.24 688.235 52.64L680.915 70.28C672.915 65.96 665.155 63.8 657.635 63.8C652.915 63.8 649.475 64.52 647.315 65.96C645.155 67.32 644.075 69.12 644.075 71.36C644.075 73.6 645.355 75.28 647.915 76.4C650.475 77.52 654.595 78.68 660.275 79.88C666.675 81.24 671.955 82.72 676.115 84.32C680.355 85.84 683.995 88.32 687.035 91.76C690.155 95.12 691.715 99.72 691.715 105.56C691.715 110.6 690.315 115.16 687.515 119.24C684.715 123.32 680.515 126.6 674.915 129.08C669.315 131.48 662.515 132.68 654.515 132.68Z" fill="#2DA965"/>
<path d="M116.148 95.8173L131.294 48.5H155.024L129.104 129.5H100.953L87.7149 85.6862L87.7149 85.6861L76.4771 48.5H98.9659L113.283 95.7946C113.474 96.4231 114.051 96.8548 114.707 96.86C115.364 96.8652 115.947 96.4427 116.148 95.8173Z" stroke="#2DA965" stroke-width="3" stroke-linejoin="round"/>
<path d="M16.814 48.5H42.8099L57.1249 95.1996L58.5191 99.748L59.986 95.2225L75.1297 48.5H97.9593L84.8645 85.621L84.8567 85.643L84.8496 85.6652L70.9022 129.5H42.734L16.814 48.5Z" fill="#2DA965" stroke="#2DA965" stroke-width="3"/>
<circle cx="114.759" cy="95" r="4.5" transform="rotate(-180 114.759 95)" fill="#2DA965" stroke="#2DA965"/>
<circle cx="135.759" cy="75" r="3.5" transform="rotate(-180 135.759 75)" fill="#2DA965" stroke="#2DA965"/>
<circle cx="108.759" cy="115" r="4.5" transform="rotate(-180 108.759 115)" fill="#2DA965" stroke="#2DA965"/>
<circle cx="125.759" cy="112" r="3.5" transform="rotate(-180 125.759 112)" fill="#2DA965" stroke="#2DA965"/>
<circle cx="101.259" cy="129.5" r="3" transform="rotate(-180 101.259 129.5)" fill="#2DA965" stroke="#2DA965"/>
<path d="M129.259 126.5C127.602 126.5 126.259 127.843 126.259 129.5C126.259 131.157 127.602 132.5 129.259 132.5C130.916 132.5 132.259 131.157 132.259 129.5C132.259 127.843 130.916 126.5 129.259 126.5Z" fill="#2DA965" stroke="#2DA965"/>
<circle cx="155.259" cy="48.5" r="3" transform="rotate(-180 155.259 48.5)" fill="#2DA965" stroke="#2DA965"/>
<circle cx="131.259" cy="48.5" r="3" transform="rotate(-180 131.259 48.5)" fill="#2DA965" stroke="#2DA965"/>
<circle cx="98.759" cy="49" r="3.5" transform="rotate(-180 98.759 49)" fill="#2DA965" stroke="#2DA965"/>
<path d="M86.259 80.5C84.0499 80.5 82.259 82.2909 82.259 84.5C82.259 86.7091 84.0499 88.5 86.259 88.5C88.4682 88.5 90.259 86.7091 90.259 84.5C90.259 82.2909 88.4682 80.5 86.259 80.5Z" fill="#2DA965" stroke="#2DA965"/>
</svg>
